# xmcd
#
# Track frame offsets:
#	225
#	13588
#	27584
#	42171
#	57617
#	70356
#	82933
#	95346
#	109187
#	125029
#
# Disc length: 1886 seconds
#
# Revision: 2
# Processed by: cddbd v1.4PL0 Copyright (c) Steve Scherf et al.
# Submitted via: audiograbber 1.81.02
#
DISCID=88075b0a
DTITLE=Percy Sledge - Best Of Percy Sledge
DYEAR=1900
DGENRE=Pop-Folk
TTITLE0=When A Man Loves A Woman
TTITLE1=Warm And Tender Love
TTITLE2=Take Time To Know Her
TTITLE3=Out Of Left Field
TTITLE4=Cover Me
TTITLE5=It Tears Me Up
TTITLE6=Sudden Stop
TTITLE7=My Special Prayer
TTITLE8=Just Out Of Reach (Of My Two Empty Arms)
TTITLE9=A Whiter Shade Of Pale
EXTD=
EXTT0=
EXTT1=
EXTT2=
EXTT3=
EXTT4=
EXTT5=
EXTT6=
EXTT7=
EXTT8=
EXTT9=
PLAYORDER=
